<?xml version="1.0" encoding="utf-8"?>
<!-- Generator: Adobe Illustrator 25.2.0, SVG Export Plug-In . SVG Version: 6.00 Build 0)  -->
<svg version="1.0" id="Layer_1" xmlns="http://www.w3.org/2000/svg" xmlns:xlink="http://www.w3.org/1999/xlink" x="0px" y="0px"
	 viewBox="0 0 120 65" enable-background="new 0 0 120 65" xml:space="preserve">
<path d="M8.4,48.7c1.2-1.2,2.8-1.9,4.6-1.9c2.5,0,4.3,0.8,5.5,2.5c0.6,0.9,1,1.9,1,2.8h-3.1c-0.2-0.7-0.5-1.3-0.8-1.6
	c-0.6-0.7-1.4-1-2.5-1c-1.1,0-2,0.5-2.6,1.4c-0.6,0.9-1,2.2-1,3.9c0,1.7,0.3,2.9,1,3.8c0.7,0.8,1.5,1.3,2.6,1.3
	c1.1,0,1.9-0.4,2.5-1.1c0.3-0.4,0.6-1,0.8-1.7h3.1c-0.3,1.6-1,3-2.1,4c-1.1,1-2.5,1.5-4.3,1.5c-2.1,0-3.8-0.7-5-2.1
	c-1.2-1.4-1.8-3.3-1.8-5.7C6.3,52.1,7,50.1,8.4,48.7z"/>
<polygon points="22,47.1 25.2,47.1 25.2,59.4 32.7,59.4 32.7,62.1 22,62.1 "/>
<rect x="34.5" y="47.1" width="3.1" height="15"/>
<path d="M42,48.7c1.2-1.2,2.8-1.9,4.6-1.9c2.5,0,4.3,0.8,5.5,2.5c0.6,0.9,1,1.9,1,2.8H50c-0.2-0.7-0.5-1.3-0.8-1.6
	c-0.6-0.7-1.4-1-2.5-1c-1.1,0-2,0.5-2.6,1.4c-0.6,0.9-1,2.2-1,3.9c0,1.7,0.3,2.9,1,3.8c0.7,0.8,1.5,1.3,2.6,1.3
	c1.1,0,1.9-0.4,2.5-1.1c0.3-0.4,0.6-1,0.8-1.7h3.1c-0.3,1.6-1,3-2.1,4c-1.1,1-2.5,1.5-4.3,1.5c-2.1,0-3.8-0.7-5-2.1
	c-1.2-1.4-1.8-3.3-1.8-5.7C39.9,52.1,40.6,50.1,42,48.7z"/>
<polygon points="55.7,47.1 58.8,47.1 58.8,53.3 64.6,47.1 68.7,47.1 62.5,53.3 69,62.1 65,62.1 60.3,55.6 58.8,57.1 58.8,62.1 
	55.7,62.1 "/>
<path d="M84.2,50.2c-0.4-0.3-1-0.5-1.7-0.5h-2.8v4.4h2.8c0.7,0,1.3-0.2,1.7-0.5c0.4-0.4,0.6-0.9,0.6-1.7S84.6,50.5,84.2,50.2z
	 M86.6,55.6c-0.9,0.7-2.1,1.1-3.8,1.1h-3.1v5.4h-3.1v-15h6.5c1.5,0,2.7,0.4,3.6,1.2c0.9,0.8,1.3,2,1.3,3.6
	C88,53.6,87.5,54.9,86.6,55.6z"/>
<path d="M93,56.4h3.8L95,50.5L93,56.4z M93.2,47.1h3.6l5.3,15h-3.4l-1-3.1h-5.5l-1,3.1h-3.3L93.2,47.1z"/>
<polygon points="110.7,47.1 114.2,47.1 109.2,56.5 109.2,62.1 106.1,62.1 106.1,56.5 100.9,47.1 104.6,47.1 107.7,53.6 "/>
<path fill="#273F3B" d="M49.3,31.3c-4.1,0-7.5-3.4-7.5-7.5V10c0-4.1,3.4-7.5,7.5-7.5h13.8c1.9,0,3.7,0.7,5.1,2
	c1.4,1.3,2.2,3,2.4,4.8c0.1,0.7-0.5,1.4-1.2,1.5c-0.7,0.1-1.4-0.5-1.5-1.2c-0.2-2.5-2.3-4.4-4.8-4.4H49.3c-2.6,0-4.8,2.1-4.8,4.8
	v13.8c0,2.6,2.1,4.8,4.8,4.8c0.7,0,1.3,0.6,1.3,1.3C50.6,30.7,50,31.3,49.3,31.3z"/>
<path fill="#B7813A" d="M75.3,18.2c0,2.6-2.1,4.8-4.8,4.8h-8.3c-2.4,0-4.4-1.8-4.7-4.1c0-0.2-0.1-0.5-0.1-0.7v-2.6
	c0-2.6,2.1-4.8,4.8-4.8h8.3c2.6,0,4.8,2.1,4.8,4.8V18.2z M70.5,8.1h-8.3c-4.1,0-7.5,3.4-7.5,7.5v2.6c0,0.3,0,0.7,0.1,1v16.5
	c0,0.7,0.6,1.3,1.3,1.3c0.7,0,1.3-0.6,1.3-1.3V24c1.3,1.1,3,1.7,4.7,1.7h8.3c4.1,0,7.5-3.4,7.5-7.5v-2.6C78,11.5,74.6,8.1,70.5,8.1z
	"/>
</svg>
